<svg width="1764" height="518" viewBox="0 0 1764 518" fill="none" xmlns="http://www.w3.org/2000/svg">
<rect x="0.948486" width="1762.45" height="517.59" fill="black"/>
<path d="M615.762 123.995V333.13C615.762 342.942 617.691 349.784 621.549 353.656C625.665 357.529 631.067 359.466 637.755 359.466C644.443 359.466 649.716 357.529 653.574 353.656C657.69 349.784 659.748 342.942 659.748 333.13V123.995H699.875V330.419C699.875 352.366 694.473 369.277 683.67 381.154C673.123 392.772 657.433 398.582 636.597 398.582C615.762 398.582 599.942 392.772 589.139 381.154C578.593 369.277 573.32 352.366 573.32 330.419V123.995H615.762Z" fill="white"/>
<path d="M852.064 294.014V330.032C852.064 351.978 846.663 368.89 835.859 380.767C825.313 392.385 809.622 398.195 788.787 398.195C767.951 398.195 752.132 392.385 741.328 380.767C730.782 368.89 725.509 351.978 725.509 330.032V189.059C725.509 167.113 730.782 150.331 741.328 138.712C752.132 126.835 767.951 120.897 788.787 120.897C809.622 120.897 825.313 126.835 835.859 138.712C846.663 150.331 852.064 167.113 852.064 189.059V215.395H811.937V186.348C811.937 176.537 809.879 169.695 805.764 165.822C801.905 161.691 796.632 159.626 789.944 159.626C783.256 159.626 777.855 161.691 773.739 165.822C769.88 169.695 767.951 176.537 767.951 186.348V332.743C767.951 342.554 769.88 349.396 773.739 353.269C777.855 357.142 783.256 359.079 789.944 359.079C796.632 359.079 801.905 357.142 805.764 353.269C809.879 349.396 811.937 342.554 811.937 332.743V294.014H852.064Z" fill="white"/>
<path d="M920.258 395.096H877.816V123.995H920.258V240.181H968.488V123.995H1011.7V395.096H968.488V278.91H920.258V395.096Z" fill="white"/>
<path d="M1081.45 332.743C1081.45 342.554 1083.37 349.525 1087.23 353.656C1091.35 357.529 1096.75 359.466 1103.44 359.466C1110.13 359.466 1115.4 357.529 1119.26 353.656C1123.37 349.525 1125.43 342.554 1125.43 332.743V186.348C1125.43 176.537 1123.37 169.695 1119.26 165.822C1115.4 161.691 1110.13 159.626 1103.44 159.626C1096.75 159.626 1091.35 161.691 1087.23 165.822C1083.37 169.695 1081.45 176.537 1081.45 186.348V332.743ZM1039 189.059C1039 167.113 1044.53 150.331 1055.59 138.712C1066.66 126.835 1082.6 120.897 1103.44 120.897C1124.27 120.897 1140.22 126.835 1151.28 138.712C1162.34 150.331 1167.87 167.113 1167.87 189.059V330.032C1167.87 351.978 1162.34 368.89 1151.28 380.767C1140.22 392.385 1124.27 398.195 1103.44 398.195C1082.6 398.195 1066.66 392.385 1055.59 380.767C1044.53 368.89 1039 351.978 1039 330.032V189.059Z" fill="white"/>
<path d="M1234.42 332.743C1234.42 342.554 1236.35 349.525 1240.21 353.656C1244.33 357.529 1249.73 359.466 1256.42 359.466C1263.11 359.466 1268.38 357.529 1272.24 353.656C1276.35 349.525 1278.41 342.554 1278.41 332.743V186.348C1278.41 176.537 1276.35 169.695 1272.24 165.822C1268.38 161.691 1263.11 159.626 1256.42 159.626C1249.73 159.626 1244.33 161.691 1240.21 165.822C1236.35 169.695 1234.42 176.537 1234.42 186.348V332.743ZM1191.98 189.059C1191.98 167.113 1197.51 150.331 1208.57 138.712C1219.63 126.835 1235.58 120.897 1256.42 120.897C1277.25 120.897 1293.2 126.835 1304.26 138.712C1315.32 150.331 1320.85 167.113 1320.85 189.059V330.032C1320.85 351.978 1315.32 368.89 1304.26 380.767C1293.2 392.385 1277.25 398.195 1256.42 398.195C1235.58 398.195 1219.63 392.385 1208.57 380.767C1197.51 368.89 1191.98 351.978 1191.98 330.032V189.059Z" fill="white"/>
<path d="M1343.03 189.059C1343.03 167.113 1348.18 150.331 1358.47 138.712C1369.01 126.835 1384.7 120.897 1405.54 120.897C1426.37 120.897 1441.94 126.835 1452.22 138.712C1462.77 150.331 1468.04 167.113 1468.04 189.059V199.516H1427.92V186.348C1427.92 176.537 1425.99 169.695 1422.13 165.822C1418.53 161.691 1413.38 159.626 1406.7 159.626C1400.01 159.626 1394.73 161.691 1390.88 165.822C1387.28 169.695 1385.47 176.537 1385.47 186.348C1385.47 195.643 1387.53 203.905 1391.65 211.135C1395.76 218.106 1400.91 224.819 1407.08 231.274C1413.26 237.47 1419.81 243.796 1426.76 250.251C1433.96 256.447 1440.65 263.289 1446.82 270.777C1453 278.265 1458.14 286.785 1462.26 296.338C1466.37 305.891 1468.43 317.122 1468.43 330.032C1468.43 351.978 1463.03 368.89 1452.22 380.767C1441.68 392.385 1425.99 398.195 1405.15 398.195C1384.32 398.195 1368.5 392.385 1357.69 380.767C1347.15 368.89 1341.88 351.978 1341.88 330.032V311.442H1382V332.743C1382 342.554 1383.93 349.396 1387.79 353.269C1391.91 357.142 1397.31 359.079 1404 359.079C1410.68 359.079 1415.96 357.142 1419.81 353.269C1423.93 349.396 1425.99 342.554 1425.99 332.743C1425.99 323.448 1423.93 315.315 1419.81 308.344C1415.7 301.115 1410.55 294.402 1404.38 288.205C1398.21 281.75 1391.52 275.424 1384.32 269.228C1377.37 262.773 1370.81 255.802 1364.64 248.314C1358.47 240.827 1353.32 232.306 1349.21 222.753C1345.09 213.2 1343.03 201.969 1343.03 189.059Z" fill="white"/>
<path d="M1535.19 238.245H1593.45V276.974H1535.19V356.368H1608.5V395.096H1492.75V123.995H1608.5V162.724H1535.19V238.245Z" fill="white"/>
<g filter="url(#filter0_i_26:404)">
<path fill-rule="evenodd" clip-rule="evenodd" d="M304.298 167.377C301.424 155.755 284.891 155.786 282.062 167.419L258.646 263.683C258.179 265.6 258.216 267.605 258.753 269.503L282.167 352.327C285.301 363.412 301.003 363.446 304.184 352.375L327.984 269.541C328.537 267.615 328.577 265.578 328.095 263.633L304.298 167.377ZM245.352 158.489C257.521 108.463 328.617 108.33 340.973 158.309L353.208 207.795L378.579 133.67C381.188 126.046 388.347 120.917 396.404 120.897C404.463 120.877 411.645 125.97 414.293 133.58L458.258 259.954C459.762 264.277 459.644 268.999 457.929 273.242L413.964 381.983C411.072 389.139 404.117 393.814 396.398 393.791C388.68 393.771 381.753 389.056 378.899 381.883L353.42 317.828L340.495 362.808C326.815 410.424 259.289 410.279 245.811 362.604L239.138 339C237.886 356.51 232.613 370.215 223.32 380.113C212.579 391.808 197.093 397.654 176.86 397.654C156.628 397.654 141.141 391.808 130.4 380.113C119.66 368.673 114.289 352.148 114.289 330.54L114.289 191.733C114.289 170.124 119.66 153.473 130.4 141.778C141.141 130.338 156.628 124.618 176.86 124.618C197.093 124.618 212.579 130.338 223.32 141.778C232.719 152.011 238.005 166.04 239.18 183.864L245.352 158.489ZM396.597 197.695L373.33 265.67L396.595 324.153L420.242 265.663L396.597 197.695ZM192.597 168.472C196.343 172.539 198.217 179.404 198.217 189.064V333.209C198.217 342.869 196.343 349.607 192.597 353.419C188.6 357.488 183.355 359.521 176.86 359.521C170.366 359.521 165.245 357.488 161.499 353.419C157.502 349.607 155.504 342.869 155.504 333.209V189.064C155.504 179.404 157.502 172.539 161.499 168.472C165.245 164.658 170.366 162.752 176.86 162.752C183.355 162.752 188.6 164.658 192.597 168.472Z" fill="url(#paint0_linear_26:404)"/>
</g>
<defs>
<filter id="filter0_i_26:404" x="114.289" y="120.897" width="345.017" height="281.543" filterUnits="userSpaceOnUse" color-interpolation-filters="sRGB">
<feFlood flood-opacity="0" result="BackgroundImageFix"/>
<feBlend mode="normal" in="SourceGraphic" in2="BackgroundImageFix" result="shape"/>
<feColorMatrix in="SourceAlpha" type="matrix" values="0 0 0 0 0 0 0 0 0 0 0 0 0 0 0 0 0 0 127 0" result="hardAlpha"/>
<feOffset dy="4"/>
<feGaussianBlur stdDeviation="2"/>
<feComposite in2="hardAlpha" operator="arithmetic" k2="-1" k3="1"/>
<feColorMatrix type="matrix" values="0 0 0 0 0 0 0 0 0 0 0 0 0 0 0 0 0 0 0.25 0"/>
<feBlend mode="normal" in2="shape" result="effect1_innerShadow_26:404"/>
</filter>
<linearGradient id="paint0_linear_26:404" x1="172.773" y1="54.25" x2="504.259" y2="210.49" gradientUnits="userSpaceOnUse">
<stop offset="0.0816829" stop-color="#B190F7"/>
<stop offset="0.530792" stop-color="#0FD0FB"/>
<stop offset="1" stop-color="#1BD022"/>
</linearGradient>
</defs>
</svg>
