<svg width="1036" height="279" viewBox="0 0 1036 279" fill="none" xmlns="http://www.w3.org/2000/svg">
<path d="M42.8134 3.68007V212.815C42.8134 222.626 44.7426 229.469 48.601 233.341C52.7166 237.214 58.1183 239.151 64.8062 239.151C71.4941 239.151 76.7672 237.214 80.6256 233.341C84.7412 229.469 86.799 222.626 86.799 212.815V3.68007H126.926V210.104C126.926 232.05 121.525 248.962 110.721 260.839C100.175 272.457 84.484 278.267 63.6487 278.267C42.8134 278.267 26.994 272.457 16.1905 260.839C5.6442 248.962 0.371063 232.05 0.371063 210.104V3.68007H42.8134Z" fill="black"/>
<path d="M279.116 173.699V209.717C279.116 231.663 273.714 248.575 262.91 260.452C252.364 272.07 236.673 277.879 215.838 277.879C195.003 277.879 179.183 272.07 168.38 260.452C157.834 248.575 152.56 231.663 152.56 209.717V68.7443C152.56 46.7981 157.834 30.0156 168.38 18.397C179.183 6.52019 195.003 0.581787 215.838 0.581787C236.673 0.581787 252.364 6.52019 262.91 18.397C273.714 30.0156 279.116 46.7981 279.116 68.7443V95.0799H238.988V66.0333C238.988 56.2221 236.931 49.38 232.815 45.5071C228.957 41.376 223.684 39.3105 216.996 39.3105C210.308 39.3105 204.906 41.376 200.79 45.5071C196.932 49.38 195.003 56.2221 195.003 66.0333V212.428C195.003 222.239 196.932 229.081 200.79 232.954C204.906 236.827 210.308 238.763 216.996 238.763C223.684 238.763 228.957 236.827 232.815 232.954C236.931 229.081 238.988 222.239 238.988 212.428V173.699H279.116Z" fill="black"/>
<path d="M347.31 274.781H304.867V3.68007H347.31V119.866H395.54V3.68007H438.754V274.781H395.54V158.595H347.31V274.781Z" fill="black"/>
<path d="M508.497 212.428C508.497 222.239 510.426 229.21 514.285 233.341C518.4 237.214 523.802 239.151 530.49 239.151C537.178 239.151 542.451 237.214 546.309 233.341C550.425 229.21 552.483 222.239 552.483 212.428V66.0333C552.483 56.2221 550.425 49.38 546.309 45.5071C542.451 41.376 537.178 39.3105 530.49 39.3105C523.802 39.3105 518.4 41.376 514.285 45.5071C510.426 49.38 508.497 56.2221 508.497 66.0333V212.428ZM466.055 68.7443C466.055 46.7981 471.585 30.0156 482.646 18.397C493.707 6.52019 509.655 0.581787 530.49 0.581787C551.325 0.581787 567.273 6.52019 578.334 18.397C589.395 30.0156 594.925 46.7981 594.925 68.7443V209.717C594.925 231.663 589.395 248.575 578.334 260.452C567.273 272.07 551.325 277.879 530.49 277.879C509.655 277.879 493.707 272.07 482.646 260.452C471.585 248.575 466.055 231.663 466.055 209.717V68.7443Z" fill="black"/>
<path d="M661.476 212.428C661.476 222.239 663.406 229.21 667.264 233.341C671.38 237.214 676.781 239.151 683.469 239.151C690.157 239.151 695.43 237.214 699.288 233.341C703.404 229.21 705.462 222.239 705.462 212.428V66.0333C705.462 56.2221 703.404 49.38 699.288 45.5071C695.43 41.376 690.157 39.3105 683.469 39.3105C676.781 39.3105 671.38 41.376 667.264 45.5071C663.406 49.38 661.476 56.2221 661.476 66.0333V212.428ZM619.034 68.7443C619.034 46.7981 624.564 30.0156 635.625 18.397C646.686 6.52019 662.634 0.581787 683.469 0.581787C704.304 0.581787 720.252 6.52019 731.313 18.397C742.374 30.0156 747.904 46.7981 747.904 68.7443V209.717C747.904 231.663 742.374 248.575 731.313 260.452C720.252 272.07 704.304 277.879 683.469 277.879C662.634 277.879 646.686 272.07 635.625 260.452C624.564 248.575 619.034 231.663 619.034 209.717V68.7443Z" fill="black"/>
<path d="M770.084 68.7443C770.084 46.7981 775.228 30.0156 785.518 18.397C796.064 6.52019 811.755 0.581787 832.59 0.581787C853.425 0.581787 868.987 6.52019 879.276 18.397C889.823 30.0156 895.096 46.7981 895.096 68.7443V79.2011H854.969V66.0333C854.969 56.2221 853.039 49.38 849.181 45.5071C845.58 41.376 840.435 39.3105 833.747 39.3105C827.06 39.3105 821.786 41.376 817.928 45.5071C814.327 49.38 812.526 56.2221 812.526 66.0333C812.526 75.3282 814.584 83.5904 818.7 90.8197C822.815 97.7909 827.96 104.504 834.133 110.959C840.307 117.155 846.866 123.481 853.811 129.936C861.013 136.132 867.701 142.974 873.875 150.462C880.048 157.95 885.193 166.47 889.308 176.023C893.424 185.576 895.482 196.807 895.482 209.717C895.482 231.663 890.08 248.575 879.276 260.452C868.73 272.07 853.039 277.879 832.204 277.879C811.369 277.879 795.549 272.07 784.746 260.452C774.2 248.575 768.926 231.663 768.926 209.717V191.127H809.054V212.428C809.054 222.239 810.983 229.081 814.841 232.954C818.957 236.827 824.359 238.763 831.047 238.763C837.734 238.763 843.008 236.827 846.866 232.954C850.982 229.081 853.039 222.239 853.039 212.428C853.039 203.133 850.982 195 846.866 188.029C842.75 180.799 837.606 174.086 831.432 167.89C825.259 161.435 818.571 155.109 811.369 148.913C804.424 142.458 797.864 135.487 791.691 127.999C785.518 120.512 780.373 111.991 776.257 102.438C772.142 92.8852 770.084 81.6539 770.084 68.7443Z" fill="black"/>
<path d="M962.241 117.93H1020.5V156.659H962.241V236.052H1035.55V274.781H919.799V3.68007H1035.55V42.4088H962.241V117.93Z" fill="black"/>
</svg>
