<svg width="346" height="279" viewBox="0 0 346 279" fill="none" xmlns="http://www.w3.org/2000/svg">
<g filter="url(#filter0_i_10:258)">
<path fill-rule="evenodd" clip-rule="evenodd" d="M190.349 47.0619C187.475 35.4396 170.943 35.4709 168.113 47.1037L144.697 143.368C144.231 145.285 144.268 147.29 144.804 149.188L168.218 232.012C171.352 243.097 187.055 243.131 190.236 232.06L214.035 149.226C214.589 147.3 214.629 145.263 214.147 143.318L190.349 47.0619ZM131.404 38.1739C143.572 -11.8522 214.668 -11.9855 227.024 37.9943L239.259 87.4796L264.631 13.3546C267.24 5.73115 274.399 0.602054 282.456 0.581854C290.514 0.561654 297.696 5.65478 300.345 13.2651L344.309 139.639C345.813 143.962 345.696 148.684 343.981 152.927L300.016 261.668C297.124 268.824 290.168 273.499 282.45 273.476C274.731 273.455 267.804 268.74 264.95 261.568L239.471 197.513L226.546 242.493C212.866 290.109 145.34 289.964 131.863 242.289L125.19 218.685C123.937 236.195 118.665 249.899 109.372 259.798C98.6309 271.493 83.1442 277.339 62.9117 277.339C42.6793 277.339 27.1926 271.493 16.4519 259.798C5.71119 248.358 0.34082 231.833 0.34082 210.225L0.340835 71.4183C0.340837 49.8093 5.71121 33.1576 16.4519 21.4633C27.1926 10.0233 42.6793 4.30322 62.9117 4.30324C83.1442 4.30324 98.6309 10.0233 109.372 21.4633C118.77 31.6963 124.056 45.7249 125.231 63.5492L131.404 38.1739ZM282.648 77.3802L259.381 145.355L282.646 203.838L306.293 145.347L282.648 77.3802ZM78.6482 48.1568C82.3948 52.2244 84.2682 59.0885 84.2682 68.7489V212.894C84.2682 222.554 82.3948 229.292 78.6482 233.104C74.6516 237.173 69.4062 239.206 62.9117 239.206C56.4173 239.206 51.2968 237.173 47.5501 233.104C43.5535 229.292 41.5551 222.554 41.5551 212.894V68.7489C41.5551 59.0885 43.5535 52.2244 47.5501 48.1568C51.2968 44.3434 56.4173 42.4369 62.9117 42.4369C69.4062 42.4369 74.6516 44.3434 78.6482 48.1568Z" fill="url(#paint0_linear_10:258)"/>
</g>
<defs>
<filter id="filter0_i_10:258" x="0.34082" y="0.581787" width="345.017" height="281.543" filterUnits="userSpaceOnUse" color-interpolation-filters="sRGB">
<feFlood flood-opacity="0" result="BackgroundImageFix"/>
<feBlend mode="normal" in="SourceGraphic" in2="BackgroundImageFix" result="shape"/>
<feColorMatrix in="SourceAlpha" type="matrix" values="0 0 0 0 0 0 0 0 0 0 0 0 0 0 0 0 0 0 127 0" result="hardAlpha"/>
<feOffset dy="4"/>
<feGaussianBlur stdDeviation="2"/>
<feComposite in2="hardAlpha" operator="arithmetic" k2="-1" k3="1"/>
<feColorMatrix type="matrix" values="0 0 0 0 0 0 0 0 0 0 0 0 0 0 0 0 0 0 0.25 0"/>
<feBlend mode="normal" in2="shape" result="effect1_innerShadow_10:258"/>
</filter>
<linearGradient id="paint0_linear_10:258" x1="58.8245" y1="-66.0652" x2="390.311" y2="90.1747" gradientUnits="userSpaceOnUse">
<stop stop-color="#B9EAFF"/>
<stop offset="1" stop-color="#B6AAFF"/>
</linearGradient>
</defs>
</svg>
